PathFileType	4	(X/Y/Z)	./resultDataOpenSim/trcMotMarkerGrf/sub06/qtm-13-07.trc
DataRate	CameraRate	NumFrames	NumMarkers	Units	OrigDataRate	OrigDataStartFrame	OrigNumFrames
250.000000	250.000000	8	24	m	250.000000	455	519
Frame#	Time	L.Toe.Tip			R.Toe.Tip			L.Ankle.Lat			R.Ankle.Lat			L.Ankle.Med			R.Ankle.Med			L.Heel			R.Heel			L.Knee.Lat			R.Knee.Lat			L.Knee.Med			R.Knee.Med			L.Thigh.Upper			R.Thigh.Upper			L.ASIS			R.ASIS			V.Sacral			L.Acromium			R.Acromium			C7			L.Elbow			R.Elbow			L.Wrist.Lat			R.Wrist.Lat
		X1	Y1	Z1	X2	Y2	Z2	X3	Y3	Z3	X4	Y4	Z4	X5	Y5	Z5	X6	Y6	Z6	X7	Y7	Z7	X8	Y8	Z8	X9	Y9	Z9	X10	Y10	Z10	X11	Y11	Z11	X12	Y12	Z12	X13	Y13	Z13	X14	Y14	Z14	X15	Y15	Z15	X16	Y16	Z16	X17	Y17	Z17	X18	Y18	Z18	X19	Y19	Z19	X20	Y20	Z20	X21	Y21	Z21	X22	Y22	Z22	X23	Y23	Z23	X24	Y24	Z24

455	1.816	1.6743163	0.03379401	-0.070670875	1.3311401	0.086156509	0.097526732	1.5514604	0.067177632	-0.10332626	1.2873436	0.21921778	0.10071878	1.5489548	0.082201736	-0.016764192	1.3346002	0.20811577	0.026817579	1.4728075	0.040918919	-0.064853337	1.2553442	0.24587655	0.028831114	1.6353822	0.43391971	-0.11329348	1.5943495	0.43232157	0.16406995	1.5967258	0.43445061	0.0016516616	1.6079323	0.410771	0.030684493	1.55032	0.8211245	-0.19063438	1.475358	0.78516599	0.14726572	1.6111696	0.86588215	-0.13502555	1.5812982	0.84909747	0.11209483	1.4077379	0.92684579	-0.026895099	1.5213377	1.3336935	-0.20361446	1.5007165	1.3295405	0.1604174	1.4321571	1.3693205	-0.027423907	1.4574488	1.0216144	-0.25617711	1.4387229	1.0083818	0.22082948	1.5894258	0.81566257	-0.28612284	1.6426747	0.86475897	0.21209667
456	1.82	1.6743241	0.033786766	-0.070673385	1.3482092	0.085731616	0.099480006	1.5514563	0.067333713	-0.10323219	1.3011143	0.21743014	0.10152505	1.5490964	0.082384669	-0.016708705	1.34824	0.20694717	0.027183422	1.4728199	0.041090993	-0.064710407	1.2680766	0.24278469	0.029914515	1.6361448	0.43399485	-0.1129801	1.6048912	0.43520705	0.16456001	1.597555	0.4346448	0.0019201028	1.6195945	0.41376458	0.031281925	1.5550411	0.82189132	-0.19052873	1.4850168	0.78620293	0.14770063	1.6162762	0.86702634	-0.13541383	1.5870627	0.85092621	0.1118028	1.4129298	0.92802334	-0.026659944	1.5270196	1.3354058	-0.20332766	1.5060314	1.3308353	0.16071842	1.4376232	1.3706092	-0.02718808	1.4651344	1.0225546	-0.25636056	1.4417618	1.0101424	0.22047241	1.6008902	0.81843185	-0.28509832	1.6428722	0.86247877	0.2136508
457	1.824	1.6743231	0.033782379	-0.070678404	1.3654999	0.085219333	0.10136611	1.5514309	0.067481293	-0.10313218	1.3149319	0.21535309	0.10238506	1.5492094	0.082550545	-0.016651606	1.3620195	0.20560133	0.027672773	1.4728172	0.041273097	-0.064562385	1.2805581	0.23938014	0.031570825	1.6368312	0.43406571	-0.11270339	1.6153396	0.43808095	0.16502116	1.5983089	0.43481581	0.0021534715	1.6308512	0.41682489	0.031803162	1.5598837	0.82269661	-0.19038025	1.4939266	0.78742765	0.14794148	1.6213553	0.86817674	-0.13577189	1.5927093	0.85274821	0.11145136	1.4181025	0.92920522	-0.026349239	1.532649	1.3370792	-0.20301099	1.5113079	1.3320599	0.16096538	1.4430745	1.3718708	-0.026951554	1.4728086	1.0235031	-0.25654887	1.4451472	1.0119193	0.22012595	1.6124955	0.82128627	-0.28403461	1.6429815	0.86029647	0.21523446
458	1.828	1.6743196	0.033782903	-0.070682427	1.3829392	0.084614381	0.10317369	1.5513948	0.067633964	-0.10305474	1.3289779	0.21300477	0.10332971	1.5491556	0.082659618	-0.016596476	1.3760033	0.20405967	0.028393252	1.4728127	0.041472353	-0.064426516	1.2930926	0.23577685	0.033345385	1.6374304	0.43412157	-0.11247013	1.6256888	0.44093711	0.16544917	1.5989653	0.43497495	0.0023755927	1.6415607	0.4199238	0.032261506	1.5648036	0.82351549	-0.19020057	1.502615	0.78878721	0.14790563	1.6264222	0.86932986	-0.13609428	1.598177	0.85458172	0.11103057	1.4232629	0.93037446	-0.026000086	1.5382538	1.3387448	-0.20267022	1.5165593	1.3332214	0.16116473	1.4485119	1.3731024	-0.026732566	1.4804623	1.0244611	-0.25674486	1.4486543	1.0137091	0.21977589	1.6239614	0.82422809	-0.28296705	1.6430158	0.85821952	0.21684417
459	1.832	1.6743208	0.03378764	-0.070684024	1.4005353	0.083920567	0.10489643	1.5513591	0.067794684	-0.10300661	1.3433937	0.21039332	0.10440365	1.5488122	0.082685143	-0.016545501	1.3901558	0.20233752	0.029282495	1.4728238	0.04168669	-0.064316929	1.3061693	0.23212349	0.034505721	1.6379422	0.43415854	-0.11228914	1.6359334	0.44377608	0.16583774	1.5994239	0.43514838	0.0026217503	1.6518561	0.42306418	0.032649099	1.5697546	0.82432724	-0.19000015	1.5122242	0.7900467	0.14750925	1.6314865	0.87048161	-0.1363729	1.6035302	0.8564279	0.11056196	1.4284444	0.93150537	-0.025651687	1.5438726	1.3404282	-0.20232412	1.5218237	1.3343329	0.1613367	1.4539384	1.3742862	-0.026544026	1.4880887	1.0254268	-0.25694134	1.4520921	1.0154909	0.21940831	1.6350559	0.8272613	-0.28192466	1.6429941	0.85624951	0.21846738
460	1.836	1.6743313	0.033794652	-0.070685158	1.4184927	0.083175655	0.10655438	1.5513306	0.06795915	-0.1029835	1.3581444	0.20755247	0.10560317	1.5482353	0.082658896	-0.016500009	1.4044185	0.20046672	0.030217087	1.472859	0.041912505	-0.064238135	1.3199283	0.22843041	0.034862515	1.6383942	0.43417987	-0.11215789	1.6460682	0.44659837	0.16618221	1.5995693	0.43536662	0.0029147375	1.6620056	0.42627378	0.032934142	1.574724	0.82512634	-0.18978113	1.5226413	0.79117654	0.14692409	1.6365521	0.87162851	-0.13660454	1.6089816	0.85826496	0.11010698	1.4336984	0.93257366	-0.025326568	1.5495161	1.3421128	-0.20198869	1.5271266	1.3353995	0.16149217	1.4593583	1.3754064	-0.026382868	1.4956926	1.0263947	-0.25713207	1.455388	1.0172495	0.21902813	1.645764	0.83038403	-0.28090959	1.6429297	0.85437342	0.22009554
461	1.84	1.6743513	0.033800942	-0.070689124	1.4369192	0.082409817	0.108169	1.5513128	0.068121668	-0.10297544	1.373011	0.20454656	0.10685129	1.5476106	0.082653114	-0.016463144	1.4187552	0.19848021	0.031103864	1.4729139	0.042149531	-0.064184304	1.3340325	0.22456245	0.034927289	1.6388222	0.43419231	-0.11206814	1.6560784	0.44939867	0.16648002	1.5994502	0.43562804	0.003233029	1.6721272	0.42954931	0.03310393	1.5797001	0.82590978	-0.18954642	1.5322186	0.79241635	0.14666616	1.6416178	0.87276303	-0.13679162	1.6146732	0.86007171	0.10970865	1.4390639	0.93356661	-0.025022841	1.5551636	1.343744	-0.20166709	1.5324675	1.336412	0.16163733	1.4647756	1.3764604	-0.026229385	1.5032936	1.0273497	-0.257329	1.4585219	1.0189801	0.21865293	1.6563206	0.83356337	-0.27989708	1.6428229	0.85257248	0.22172586
462	1.844	1.674378	0.033802951	-0.070697723	1.4555482	0.081598807	0.10974261	1.5513078	0.068281042	-0.10297021	1.3877939	0.20142472	0.10807131	1.5470116	0.082698766	-0.016439134	1.4331618	0.19638595	0.031934266	1.4729776	0.042398209	-0.064138053	1.3480745	0.22040007	0.035255324	1.639243	0.43420299	-0.11201622	1.6659497	0.45216583	0.16673382	1.599332	0.43588754	0.0035173195	1.6821788	0.43283797	0.033192772	1.5846274	0.82666772	-0.18931064	1.539425	0.79399806	0.14719398	1.6466798	0.87387361	-0.13693889	1.6205563	0.86184062	0.10935872	1.4445408	0.93448235	-0.02471362	1.5607924	1.3452764	-0.20134901	1.5378312	1.3373553	0.16178422	1.4701915	1.3774542	-0.026058597	1.510912	1.0282716	-0.25754747	1.4614731	1.0206787	0.21829253	1.6670795	0.83674057	-0.278849	1.6426683	0.85084011	0.2233587
